<?xml version="1.0" encoding="iso-8859-1"?>
<!-- Uploaded to: SVG Repo, www.svgrepo.com, Generator: SVG Repo Mixer Tools -->
<!DOCTYPE svg PUBLIC "-//W3C//DTD SVG 1.1//EN" "http://www.w3.org/Graphics/SVG/1.1/DTD/svg11.dtd">
<svg fill="#000000" height="800px" width="800px" version="1.1" id="Capa_1" xmlns="http://www.w3.org/2000/svg" xmlns:xlink="http://www.w3.org/1999/xlink" 
	 viewBox="0 0 298 298" xml:space="preserve">
<path d="M292.983,139.187l-29.497-22.068c-6.289-4.72-14.065-7.282-22.073-7.282h-21.714V80.9c0-6.903-5.597-12.5-12.5-12.5H51.64
	c-6.903,0-12.5,5.597-12.5,12.5v28.937H13.197C5.91,109.837,0,115.445,0,122.363v53.294c0,6.898,5.91,12.506,13.197,12.506H39.14
	V217.1c0,6.903,5.597,12.5,12.5,12.5h155.559c6.903,0,12.5-5.597,12.5-12.5v-28.937h21.714c8.008,0,15.784-2.561,22.073-7.261
	l29.497-22.068c3.172-2.381,5.017-5.991,5.017-9.824C298,145.178,296.154,141.567,292.983,139.187z M206.96,158.813
	c-5.421,0-9.813-4.395-9.813-9.813s4.392-9.813,9.813-9.813c5.42,0,9.813,4.395,9.813,9.813S212.381,158.813,206.96,158.813z
	 M194.699,204.6H64.14V93.4h130.559v16.588H81.973V139H113c5.522,0,10,4.478,10,10c0,5.523-4.478,10-10,10H81.973v29.012h112.726
	V204.6z M173.392,149c0,5.417-4.392,9.813-9.813,9.813c-5.421,0-9.813-4.395-9.813-9.813s4.392-9.813,9.813-9.813
	C168.999,139.188,173.392,143.583,173.392,149z"/>
</svg>